<svg width="60" height="60" viewBox="0 0 60 60" fill="none" xmlns="http://www.w3.org/2000/svg">
<circle cx="30" cy="30" r="29.5" fill="#0E121A" stroke="#775DDA"/>
<g clip-path="url(#clip0_974_1096)">
<path d="M43.3438 30C43.3438 37.3562 37.3562 43.3438 30 43.3438C22.6438 43.3438 16.6562 37.3562 16.6562 30C16.6562 22.6438 22.6437 16.6562 30 16.6562C37.3563 16.6562 43.3438 22.6438 43.3438 30ZM42.7896 30C42.7896 22.9455 37.0544 17.2104 30 17.2104C22.9456 17.2104 17.2104 22.9455 17.2104 30C17.2104 37.0545 22.9455 42.7896 30 42.7896C37.0545 42.7896 42.7896 37.0545 42.7896 30Z" fill="white" stroke="white" stroke-width="1.3125"/>
<path d="M34.0833 34.4614C34.256 34.6013 34.4613 34.6667 34.6666 34.6667C34.942 34.6667 35.2126 34.5454 35.3946 34.3167C35.7166 33.9154 35.6512 33.3274 35.25 33.0054L30.9333 29.552V22.5334C30.9333 22.02 30.5133 21.6 30 21.6C29.4866 21.6 29.0667 22.02 29.0667 22.5334V30.0001C29.0667 30.2847 29.1973 30.5507 29.4166 30.728L34.0833 34.4614Z" fill="white"/>
</g>
<defs>
<clipPath id="clip0_974_1096">
<rect width="28" height="28" fill="white" transform="translate(16 16)"/>
</clipPath>
</defs>
</svg>
