<svg width="60" height="60" viewBox="0 0 60 60" fill="none" xmlns="http://www.w3.org/2000/svg">
<circle cx="30" cy="30" r="29.5" fill="#0E121A" stroke="#775DDA"/>
<g clip-path="url(#clip0_974_1075)">
<path d="M35.3525 26.2704V24.6861L34.2322 25.8064L25.8064 34.2323L24.6862 35.3525H26.2705H29.5506C29.5657 35.3525 29.578 35.3648 29.578 35.3799C29.578 35.395 29.5657 35.4072 29.5506 35.4072H24.6201C24.605 35.4072 24.5928 35.395 24.5928 35.3799V30.4494C24.5928 30.4344 24.605 30.4221 24.6201 30.4221C24.6352 30.4221 24.6475 30.4344 24.6475 30.4494V33.7296V35.3139L25.7678 34.1936L34.1936 25.7677L35.3138 24.6475H33.7295H30.4494C30.4343 24.6475 30.422 24.6352 30.422 24.6201C30.422 24.605 30.4343 24.5928 30.4494 24.5928H35.3799C35.395 24.5928 35.4072 24.605 35.4072 24.6201V29.5506C35.4072 29.5657 35.395 29.578 35.3799 29.578C35.3648 29.578 35.3525 29.5657 35.3525 29.5506V26.2704ZM21.1645 17.1211H38.8355C41.0644 17.1211 42.8788 18.9355 42.8788 21.1645V38.8355C42.8788 41.0645 41.0644 42.8789 38.8355 42.8789H21.1645C18.9355 42.8789 17.1211 41.0645 17.1211 38.8355V21.1645C17.1211 18.9355 18.9355 17.1211 21.1645 17.1211ZM38.8355 42.8242C41.0354 42.8242 42.8242 41.0355 42.8242 38.8355V21.1645C42.8242 18.9645 41.0354 17.1758 38.8355 17.1758H21.1645C18.9646 17.1758 17.1758 18.9645 17.1758 21.1645V38.8355C17.1758 41.0355 18.9646 42.8242 21.1645 42.8242H38.8355Z" fill="black" stroke="white" stroke-width="1.3125"/>
</g>
<defs>
<clipPath id="clip0_974_1075">
<rect width="28" height="28" fill="white" transform="translate(16 16)"/>
</clipPath>
</defs>
</svg>
